<?xml version="1.0" standalone="no"?>
<!DOCTYPE svg PUBLIC "-//W3C//DTD SVG 20010904//EN"
 "http://www.w3.org/TR/2001/REC-SVG-20010904/DTD/svg10.dtd">
<svg version="1.0" xmlns="http://www.w3.org/2000/svg"
 width="450.000000pt" height="450.000000pt" viewBox="0 0 450.000000 450.000000"
 preserveAspectRatio="xMidYMid meet">
<metadata>
Created by potrace 1.14, written by Peter Selinger 2001-2017
</metadata>
<g transform="translate(0.000000,450.000000) scale(0.100000,-0.100000)"
fill="#000000" stroke="none">
<path d="M3869 4465 c-3 -2 -45 -7 -95 -11 -91 -6 -139 -11 -139 -14 0 -2 -32
-10 -60 -15 -66 -11 -139 -29 -185 -44 -14 -5 -45 -14 -70 -22 -25 -7 -49 -16
-54 -21 -6 -4 -18 -8 -28 -8 -10 0 -18 -5 -18 -12 0 -6 -3 -8 -7 -5 -3 4 -12
2 -20 -4 -7 -6 -13 -8 -13 -4 0 4 -6 3 -12 -3 -7 -5 -58 -33 -113 -62 -175
-92 -318 -213 -365 -307 -13 -26 -23 -53 -23 -60 0 -7 -3 -13 -7 -13 -4 0 -7
-6 -8 -12 0 -7 -4 -26 -7 -43 -3 -16 -8 -97 -10 -180 -6 -200 -11 -276 -20
-297 -4 -10 -5 -25 -2 -33 4 -8 2 -17 -4 -20 -5 -4 -9 -12 -8 -18 1 -7 0 -19
-4 -27 -3 -8 -13 -40 -23 -70 -10 -30 -22 -59 -26 -64 -4 -6 -8 -18 -8 -28 0
-10 -5 -18 -11 -18 -5 0 -8 -4 -5 -9 3 -5 -3 -20 -14 -34 -11 -14 -20 -30 -20
-36 0 -6 -5 -11 -12 -11 -6 0 -9 -3 -5 -6 3 -3 2 -11 -4 -18 -5 -6 -23 -29
-40 -51 -49 -65 -188 -202 -269 -267 -41 -32 -100 -79 -130 -102 -85 -68 -102
-86 -151 -163 -26 -40 -49 -69 -53 -66 -3 3 -6 1 -6 -6 0 -7 -17 -38 -38 -69
-21 -31 -46 -74 -57 -94 -11 -21 -24 -38 -29 -38 -5 0 -7 -2 -4 -5 5 -5 -16
-50 -85 -180 -11 -22 -22 -45 -23 -50 -1 -6 -24 -51 -51 -100 -41 -75 -91
-174 -98 -195 -5 -18 -127 -257 -135 -267 -6 -7 -8 -13 -5 -13 4 0 -2 -15 -13
-32 -12 -18 -21 -35 -21 -38 0 -3 -17 -41 -37 -85 -21 -44 -37 -83 -36 -87 1
-5 -3 -8 -8 -8 -5 0 -9 -3 -8 -7 2 -8 -14 -44 -73 -169 -16 -34 -29 -64 -29
-68 0 -3 -16 -41 -36 -83 -20 -43 -37 -84 -37 -90 0 -7 -3 -13 -7 -13 -4 0
-12 -17 -18 -39 -7 -21 -21 -59 -32 -85 -12 -25 -21 -49 -21 -53 -1 -5 -6 -17
-12 -28 -6 -11 -10 -24 -9 -28 1 -5 -4 -20 -12 -35 -22 -42 -49 -123 -42 -129
7 -7 36 16 33 26 -1 4 12 36 30 71 43 87 73 157 73 168 0 6 7 13 16 16 9 4 14
9 11 12 -3 4 5 28 18 54 13 26 21 50 18 54 -4 3 -1 6 5 6 7 0 12 5 12 10 0 6
28 68 61 138 72 149 125 263 128 277 1 6 13 29 26 51 13 23 21 44 18 48 -3 3
-2 6 4 6 6 0 21 26 34 58 12 31 40 92 62 134 21 42 40 83 41 90 1 7 6 20 11
28 16 26 78 154 81 168 7 36 61 101 99 119 40 18 56 17 120 -7 73 -28 107 -40
118 -40 14 0 47 60 47 85 0 8 4 15 8 15 4 0 8 10 9 22 1 11 7 24 13 28 7 4 11
9 10 11 -1 2 4 18 11 34 7 17 13 32 14 35 1 3 7 19 15 35 7 17 19 46 27 65 15
36 39 91 63 145 8 17 14 32 15 35 0 3 8 21 17 40 9 19 30 64 46 100 16 36 42
85 57 110 16 25 28 48 27 53 -1 4 2 7 6 7 4 0 16 15 27 33 22 37 30 47 69 90
16 18 35 42 43 54 8 13 19 21 23 18 4 -3 15 6 24 20 9 14 23 25 30 25 8 0 16
4 18 8 2 5 29 23 61 41 51 29 73 50 76 74 1 4 1 8 2 10 1 1 3 27 5 57 7 80 7
80 16 80 4 0 7 3 6 8 -1 8 15 52 35 92 6 14 41 55 77 91 50 50 86 77 150 107
47 23 87 41 90 41 3 0 19 5 35 11 32 13 61 20 85 23 8 1 17 4 20 7 3 3 25 14
49 25 65 29 172 138 206 210 15 33 28 66 28 73 0 6 3 12 7 12 7 0 10 25 11
105 2 94 -10 133 -66 218 -8 12 -21 40 -28 62 -13 37 -13 44 8 91 26 58 87
116 161 150 52 25 179 59 249 68 22 3 54 9 70 13 17 5 45 8 63 8 27 -1 32 2
32 22 0 19 -5 23 -28 23 -16 0 -31 -2 -33 -5z m-663 -401 c36 -17 116 -90 131
-119 6 -11 16 -48 23 -81 19 -98 -8 -194 -79 -282 -30 -38 -112 -104 -133
-108 -5 -1 -10 -3 -13 -4 -3 -1 -8 -3 -12 -5 -5 -1 -17 -6 -28 -11 -32 -14
-186 -10 -215 6 -14 8 -28 14 -31 15 -9 0 -93 75 -84 75 5 0 1 8 -7 18 -27 31
-40 75 -40 137 -1 73 8 127 23 136 8 5 10 9 5 9 -5 0 -1 9 10 21 10 12 17 23
15 26 -13 18 147 162 163 146 3 -4 6 -2 6 4 0 9 40 24 95 37 34 8 138 -5 171
-20z m-1261 -1860 c20 -9 38 -27 44 -44 15 -45 -5 -52 -63 -24 -28 13 -56 24
-63 24 -7 0 -13 9 -13 19 0 16 24 32 58 40 2 1 19 -6 37 -15z m-85 -65 c0 -6
7 -9 15 -5 8 3 15 1 15 -4 0 -6 5 -10 10 -10 6 0 27 -7 48 -16 l37 -15 -24
-20 c-13 -10 -36 -19 -52 -19 -38 0 -86 46 -81 78 3 22 32 32 32 11z"/>
<path d="M800 3940 c-19 -4 -36 -13 -38 -19 -2 -5 -10 -7 -18 -4 -8 3 -14 -1
-14 -8 0 -7 -3 -10 -6 -6 -3 3 -14 -2 -25 -11 -11 -9 -23 -17 -27 -17 -12 1
-59 -51 -76 -84 -9 -17 -24 -46 -33 -63 -27 -50 -23 -170 7 -228 13 -25 24
-49 25 -53 0 -4 7 -12 15 -17 8 -5 12 -10 8 -10 -4 0 -1 -8 6 -17 8 -10 27
-33 41 -51 15 -17 30 -30 35 -27 4 3 10 -1 13 -8 4 -11 105 -67 130 -73 4 -1
9 -3 12 -4 3 -1 10 -4 15 -5 6 -1 13 -4 18 -5 4 -1 10 -2 15 -1 4 0 7 -3 7 -8
0 -6 9 -8 20 -6 11 2 20 0 20 -6 0 -5 5 -9 11 -9 6 0 27 -7 47 -16 96 -43 127
-58 132 -63 3 -3 18 -13 34 -21 40 -20 65 -42 152 -130 113 -116 149 -163 239
-315 39 -67 142 -292 150 -329 1 -6 7 -24 13 -39 7 -16 12 -34 12 -40 1 -15
39 34 40 49 0 7 7 15 16 18 8 3 13 10 10 15 -3 5 5 20 19 32 13 13 25 30 25
37 0 6 4 12 10 12 5 0 16 13 24 29 15 27 14 30 -25 82 -21 30 -58 75 -82 100
-82 88 -132 146 -147 168 -8 13 -25 35 -38 49 -73 85 -198 293 -184 306 3 3 0
6 -7 6 -6 0 -11 6 -9 13 1 6 -3 22 -10 34 -6 11 -19 63 -28 115 -19 108 -15
418 5 456 6 12 24 28 40 37 57 29 59 109 4 134 -38 17 -55 13 -90 -21 -26 -25
-42 -32 -78 -33 -25 -1 -45 1 -45 5 0 5 -8 7 -17 6 -10 -2 -25 0 -33 4 -83 40
-259 61 -340 40z m182 -65 c48 -5 155 -62 191 -101 44 -48 84 -118 93 -164 9
-48 11 -93 5 -105 -3 -5 -6 -12 -6 -15 -1 -3 -10 -26 -22 -51 -17 -39 -90
-113 -112 -114 -3 -1 -17 -7 -30 -14 -56 -31 -240 -20 -277 16 -8 8 -14 12
-14 8 0 -10 -51 29 -92 70 -54 54 -81 120 -92 220 -1 11 2 26 7 33 6 7 7 15 4
18 -9 10 44 97 77 127 40 35 112 69 155 73 18 2 36 5 38 8 3 2 15 2 26 -1 12
-3 34 -6 49 -8z"/>
<path d="M2120 2100 c-7 -17 -16 -30 -21 -30 -5 0 -9 -9 -9 -20 0 -11 -4 -20
-10 -20 -5 0 -10 -6 -10 -14 0 -7 -11 -38 -23 -67 -27 -62 -40 -92 -42 -99 -8
-31 -18 -50 -26 -50 -6 0 -7 -4 -4 -10 3 -5 3 -16 -2 -22 -4 -7 -8 -18 -9 -24
-2 -14 49 -107 59 -106 4 1 50 15 102 32 113 36 134 37 169 9 21 -17 66 -85
71 -109 2 -10 66 -146 85 -181 11 -20 20 -43 20 -51 0 -8 6 -20 13 -27 6 -6
12 -15 13 -19 1 -7 22 -53 132 -282 92 -193 112 -238 112 -249 0 -6 5 -11 12
-11 6 0 9 -2 6 -6 -3 -3 21 -59 53 -125 33 -65 59 -124 59 -129 0 -6 5 -10 12
-10 6 0 8 -3 5 -6 -3 -4 -1 -16 5 -28 7 -11 11 -24 10 -28 -1 -5 3 -8 9 -8 5
0 7 -5 4 -10 -3 -5 -1 -10 4 -10 6 0 11 -6 11 -13 0 -6 23 -58 50 -114 28 -56
50 -106 50 -112 0 -22 16 -18 18 5 1 13 -3 24 -10 24 -6 0 -8 3 -5 7 4 3 2 12
-3 19 -6 6 -10 16 -8 20 1 5 -6 24 -15 42 -10 18 -15 37 -12 42 3 6 2 10 -3
10 -6 0 -13 12 -17 28 -3 15 -14 45 -24 67 -10 22 -29 67 -41 100 -13 33 -27
65 -32 71 -4 6 -5 14 -1 17 3 4 1 7 -5 7 -7 0 -12 5 -12 11 0 6 -21 61 -47
123 -26 61 -46 114 -45 119 1 4 -3 7 -9 7 -5 0 -7 5 -4 10 3 6 2 10 -3 10 -5
0 -12 10 -15 23 -4 20 -45 114 -118 272 -15 33 -37 83 -49 110 -12 28 -34 77
-50 110 -29 62 -40 91 -39 101 0 4 -4 10 -9 13 -9 6 -17 22 -79 161 -13 30
-28 62 -32 70 -20 41 -57 106 -61 110 -3 3 -16 26 -30 53 -13 26 -28 47 -32
47 -5 0 -8 4 -8 10 0 5 -22 43 -49 84 l-49 75 -12 -29z"/>
<path d="M1645 1691 c-25 -11 -75 -66 -75 -84 0 -7 -7 -23 -16 -35 -8 -12 -12
-22 -7 -22 4 0 3 -4 -3 -8 -5 -4 -17 -23 -26 -42 -9 -19 -39 -84 -67 -143 -28
-60 -51 -113 -51 -118 0 -5 -4 -9 -10 -9 -5 0 -10 -6 -10 -13 0 -7 -15 -44
-33 -82 -19 -39 -35 -74 -36 -80 -1 -5 -11 -26 -21 -45 -19 -35 -54 -109 -177
-375 -36 -77 -89 -189 -118 -250 -29 -60 -61 -128 -70 -150 -9 -21 -21 -43
-28 -47 -9 -6 -8 -8 3 -8 12 0 13 -2 1 -9 -7 -5 -12 -14 -9 -21 2 -6 10 1 18
17 20 38 53 87 63 91 4 2 7 8 7 14 0 5 13 28 29 51 15 23 70 107 121 187 51
80 101 157 111 172 11 15 19 31 19 37 0 5 3 11 8 13 4 2 36 48 71 103 36 55
69 103 75 107 6 4 7 8 2 8 -5 0 -2 8 7 18 10 10 14 22 10 25 -3 4 -1 7 5 7 6
0 24 21 39 48 15 26 31 49 35 50 4 2 8 10 8 18 0 8 7 17 15 20 8 4 13 9 10 14
-2 4 5 16 15 28 11 12 20 23 20 26 0 8 105 171 113 174 4 2 5 8 1 13 -3 5 -1
9 5 9 6 0 29 33 52 73 23 39 45 74 49 77 18 14 51 83 44 90 -9 8 -161 61 -173
59 -3 0 -15 -4 -26 -8z"/>
<path d="M2157 1635 c-15 -8 -30 -14 -32 -15 -3 0 -6 0 -7 -1 -2 0 -11 -2 -21
-4 -20 -4 -47 -24 -47 -35 0 -4 9 -17 20 -30 11 -13 20 -26 20 -31 0 -4 15
-30 33 -57 39 -61 86 -139 89 -150 1 -4 10 -16 20 -26 10 -11 24 -32 30 -48 7
-15 16 -28 20 -28 5 0 8 -4 8 -10 0 -9 55 -104 73 -125 23 -28 115 -175 109
-175 -4 0 1 -5 11 -11 9 -6 15 -14 12 -20 -4 -5 1 -12 9 -15 9 -3 13 -10 10
-15 -3 -5 -1 -9 4 -9 5 0 15 -12 23 -27 17 -36 69 -114 86 -131 7 -8 11 -17 8
-22 -3 -5 -1 -10 4 -12 4 -1 34 -43 65 -93 31 -49 83 -130 117 -180 33 -49 62
-98 66 -107 3 -10 9 -18 14 -18 5 0 9 -7 9 -15 0 -8 3 -15 8 -15 4 0 23 -27
41 -60 19 -33 39 -60 44 -60 4 0 6 -4 3 -9 -6 -8 26 -51 38 -51 11 0 2 24 -14
37 -8 7 -11 13 -7 13 4 0 -12 37 -36 83 -25 45 -48 93 -52 107 -4 14 -17 39
-29 55 -11 17 -19 30 -17 30 2 0 -12 32 -30 70 -54 114 -159 334 -198 415 -20
41 -35 78 -33 83 1 4 -2 7 -8 7 -5 0 -10 9 -10 19 0 11 -3 21 -8 23 -4 2 -29
51 -56 111 -27 59 -53 107 -59 107 -6 0 -7 3 -4 6 4 4 -2 23 -13 43 -38 73
-124 256 -122 264 1 4 -3 7 -9 7 -5 0 -7 5 -4 10 3 6 1 10 -4 10 -6 0 -10 3
-9 8 4 14 -42 92 -61 102 -28 14 -71 12 -104 -5z"/>
<path d="M833 164 c-7 -7 -12 -23 -12 -36 1 -20 2 -21 6 -3 3 11 11 25 19 32
9 6 12 13 7 16 -4 3 -14 -1 -20 -9z"/>
<path d="M3056 111 c-4 -7 -5 -15 -2 -18 9 -9 19 4 14 18 -4 11 -6 11 -12 0z"/>
</g>
</svg>
